<svg width="460" height="406" viewBox="0 0 460 406" fill="none" xmlns="http://www.w3.org/2000/svg">
<rect x="286.715" y="86.7279" width="173.297" height="259.076" rx="1.53679" transform="rotate(15 286.715 86.7279)" fill="#5555FF" stroke="black" stroke-width="0.283405"/>
<rect x="293.302" y="97.8784" width="154.801" height="240.945" rx="1.39509" transform="rotate(15 293.302 97.8784)" fill="#1F1E1D"/>
<ellipse cx="336.558" cy="234.153" rx="64.2151" ry="41.0556" transform="rotate(-15 336.558 234.153)" fill="#ED1C24"/>
<mask id="path-4-outside-1_8_45" maskUnits="userSpaceOnUse" x="262.732" y="206.979" width="147.859" height="181.318" fill="black">
<rect fill="white" x="262.732" y="206.979" width="147.859" height="181.318"/>
<path d="M306.944 223.927L322.511 221.25L322.725 259.033C322.766 263.522 321.755 267.588 319.691 271.229C317.642 274.848 314.76 277.871 311.046 280.297C307.328 282.704 303.014 284.33 298.105 285.174C293.159 286.025 288.83 285.885 285.119 284.755C281.405 283.607 278.5 281.579 276.406 278.672C274.326 275.744 273.266 272.035 273.224 267.545L273.011 229.762L288.578 227.085L288.784 263.486C288.809 265.307 289.22 266.86 290.017 268.145C290.815 269.43 291.908 270.366 293.296 270.954C294.682 271.523 296.261 271.655 298.034 271.35C299.826 271.042 301.411 270.366 302.788 269.322C304.18 268.256 305.262 266.946 306.032 265.391C306.803 263.837 307.175 262.149 307.15 260.327L306.944 223.927ZM379.523 211.446L379.863 270.423L366.872 272.657L346.013 245.227L345.677 245.285L345.818 276.278L330.251 278.955L329.91 219.977L343.125 217.705L363.741 245.061L364.189 244.984L363.956 214.123L379.523 211.446ZM345.174 346.332C345.2 352.746 344.027 358.329 341.654 363.08C339.281 367.831 336.067 371.66 332.013 374.567C327.958 377.475 323.411 379.362 318.371 380.228C312.996 381.153 308.129 380.788 303.77 379.136C299.412 377.483 295.941 374.563 293.357 370.376C290.773 366.189 289.463 360.755 289.429 354.073C289.365 347.665 290.516 342.067 292.883 337.279C295.25 332.49 298.476 328.62 302.561 325.669C306.647 322.719 311.228 320.807 316.305 319.933C321.643 319.016 326.484 319.394 330.827 321.068C335.188 322.74 338.655 325.689 341.227 329.917C343.817 334.141 345.133 339.613 345.174 346.332ZM329.186 347.236C329.144 343.861 328.706 341.092 327.873 338.93C327.037 336.748 325.802 335.212 324.169 334.32C322.533 333.41 320.502 333.164 318.075 333.581C315.313 334.056 312.983 335.148 311.086 336.858C309.189 338.568 307.758 340.803 306.791 343.564C305.825 346.324 305.366 349.526 305.416 353.169C305.39 356.594 305.809 359.366 306.673 361.485C307.556 363.601 308.829 365.083 310.493 365.93C312.176 366.775 314.212 366.992 316.601 366.581C319.326 366.112 321.622 365.045 323.487 363.379C325.372 361.709 326.791 359.515 327.746 356.795C328.719 354.072 329.199 350.885 329.186 347.236Z"/>
</mask>
<path d="M306.944 223.927L322.511 221.25L322.725 259.033C322.766 263.522 321.755 267.588 319.691 271.229C317.642 274.848 314.76 277.871 311.046 280.297C307.328 282.704 303.014 284.33 298.105 285.174C293.159 286.025 288.83 285.885 285.119 284.755C281.405 283.607 278.5 281.579 276.406 278.672C274.326 275.744 273.266 272.035 273.224 267.545L273.011 229.762L288.578 227.085L288.784 263.486C288.809 265.307 289.22 266.86 290.017 268.145C290.815 269.43 291.908 270.366 293.296 270.954C294.682 271.523 296.261 271.655 298.034 271.35C299.826 271.042 301.411 270.366 302.788 269.322C304.18 268.256 305.262 266.946 306.032 265.391C306.803 263.837 307.175 262.149 307.15 260.327L306.944 223.927ZM379.523 211.446L379.863 270.423L366.872 272.657L346.013 245.227L345.677 245.285L345.818 276.278L330.251 278.955L329.91 219.977L343.125 217.705L363.741 245.061L364.189 244.984L363.956 214.123L379.523 211.446ZM345.174 346.332C345.2 352.746 344.027 358.329 341.654 363.08C339.281 367.831 336.067 371.66 332.013 374.567C327.958 377.475 323.411 379.362 318.371 380.228C312.996 381.153 308.129 380.788 303.77 379.136C299.412 377.483 295.941 374.563 293.357 370.376C290.773 366.189 289.463 360.755 289.429 354.073C289.365 347.665 290.516 342.067 292.883 337.279C295.25 332.49 298.476 328.62 302.561 325.669C306.647 322.719 311.228 320.807 316.305 319.933C321.643 319.016 326.484 319.394 330.827 321.068C335.188 322.74 338.655 325.689 341.227 329.917C343.817 334.141 345.133 339.613 345.174 346.332ZM329.186 347.236C329.144 343.861 328.706 341.092 327.873 338.93C327.037 336.748 325.802 335.212 324.169 334.32C322.533 333.41 320.502 333.164 318.075 333.581C315.313 334.056 312.983 335.148 311.086 336.858C309.189 338.568 307.758 340.803 306.791 343.564C305.825 346.324 305.366 349.526 305.416 353.169C305.39 356.594 305.809 359.366 306.673 361.485C307.556 363.601 308.829 365.083 310.493 365.93C312.176 366.775 314.212 366.992 316.601 366.581C319.326 366.112 321.622 365.045 323.487 363.379C325.372 361.709 326.791 359.515 327.746 356.795C328.719 354.072 329.199 350.885 329.186 347.236Z" fill="#F8DA27"/>
<path d="M306.944 223.927L306.436 220.97L303.93 221.401L303.945 223.943L306.944 223.927ZM322.511 221.25L325.511 221.233L325.491 217.693L322.003 218.293L322.511 221.25ZM322.725 259.033L319.725 259.05L319.725 259.061L322.725 259.033ZM319.691 271.229L317.081 269.749L317.08 269.751L319.691 271.229ZM311.046 280.297L312.676 282.815L312.686 282.809L311.046 280.297ZM285.119 284.755L284.233 287.621L284.246 287.625L285.119 284.755ZM276.406 278.672L273.959 280.409L273.966 280.418L273.972 280.426L276.406 278.672ZM273.224 267.545L270.224 267.562L270.224 267.573L273.224 267.545ZM273.011 229.762L272.502 226.805L269.996 227.236L270.011 229.779L273.011 229.762ZM288.578 227.085L291.578 227.068L291.558 223.528L288.069 224.128L288.578 227.085ZM288.784 263.486L285.784 263.503L285.784 263.515L285.784 263.527L288.784 263.486ZM290.017 268.145L292.566 266.563L290.017 268.145ZM293.296 270.954L292.127 273.717L292.142 273.723L292.157 273.729L293.296 270.954ZM302.788 269.322L304.6 271.712L304.611 271.704L302.788 269.322ZM307.15 260.327L304.15 260.344L304.151 260.356L304.151 260.368L307.15 260.327ZM307.453 226.883L323.02 224.206L322.003 218.293L306.436 220.97L307.453 226.883ZM319.512 221.267L319.725 259.05L325.724 259.016L325.511 221.233L319.512 221.267ZM319.725 259.061C319.762 263.062 318.866 266.601 317.081 269.749L322.301 272.709C324.644 268.575 325.771 263.983 325.724 259.005L319.725 259.061ZM317.08 269.751C315.283 272.926 312.746 275.603 309.405 277.785L312.686 282.809C316.774 280.139 320.001 276.771 322.301 272.707L317.08 269.751ZM309.415 277.779C306.078 279.94 302.156 281.434 297.597 282.217L298.614 288.131C303.873 287.226 308.578 285.469 312.676 282.815L309.415 277.779ZM297.597 282.217C292.981 283.011 289.145 282.845 285.993 281.885L284.246 287.625C288.516 288.925 293.337 289.038 298.614 288.131L297.597 282.217ZM286.006 281.889C282.858 280.916 280.52 279.25 278.839 276.918L273.972 280.426C276.481 283.908 279.952 286.297 284.233 287.621L286.006 281.889ZM278.852 276.935C277.207 274.619 276.261 271.548 276.224 267.517L270.224 267.573C270.27 272.521 271.445 276.868 273.959 280.409L278.852 276.935ZM276.224 267.528L276.011 229.745L270.011 229.779L270.224 267.562L276.224 267.528ZM273.519 232.718L289.086 230.041L288.069 224.128L272.502 226.805L273.519 232.718ZM285.578 227.102L285.784 263.503L291.784 263.469L291.578 227.068L285.578 227.102ZM285.784 263.527C285.815 265.781 286.33 267.892 287.468 269.727L292.566 266.563C292.11 265.828 291.802 264.833 291.783 263.445L285.784 263.527ZM287.468 269.727C288.592 271.537 290.166 272.887 292.127 273.717L294.465 268.191C293.65 267.846 293.038 267.323 292.566 266.563L287.468 269.727ZM292.157 273.729C294.16 274.552 296.327 274.687 298.543 274.306L297.526 268.393C296.195 268.622 295.203 268.494 294.436 268.179L292.157 273.729ZM298.543 274.306C300.783 273.921 302.82 273.062 304.6 271.712L300.975 266.931C300.001 267.669 298.87 268.162 297.526 268.393L298.543 274.306ZM304.611 271.704C306.364 270.362 307.744 268.694 308.72 266.723L303.344 264.059C302.78 265.197 301.996 266.15 300.964 266.939L304.611 271.704ZM308.72 266.723C309.713 264.721 310.181 262.559 310.15 260.286L304.151 260.368C304.169 261.738 303.893 262.952 303.344 264.059L308.72 266.723ZM310.15 260.31L309.944 223.91L303.945 223.943L304.15 260.344L310.15 260.31ZM379.523 211.446L382.523 211.429L382.502 207.89L379.014 208.489L379.523 211.446ZM379.863 270.423L380.372 273.38L382.878 272.949L382.863 270.406L379.863 270.423ZM366.872 272.657L364.484 274.473L365.586 275.922L367.381 275.614L366.872 272.657ZM346.013 245.227L348.401 243.411L347.299 241.962L345.505 242.271L346.013 245.227ZM345.677 245.285L345.169 242.328L342.665 242.759L342.677 245.299L345.677 245.285ZM345.818 276.278L346.326 279.234L348.829 278.804L348.818 276.264L345.818 276.278ZM330.251 278.955L327.251 278.972L327.271 282.511L330.759 281.911L330.251 278.955ZM329.91 219.977L329.402 217.021L326.895 217.452L326.91 219.995L329.91 219.977ZM343.125 217.705L345.521 215.899L344.42 214.438L342.617 214.748L343.125 217.705ZM363.741 245.061L361.345 246.867L362.447 248.328L364.25 248.018L363.741 245.061ZM364.189 244.984L364.698 247.941L367.208 247.509L367.189 244.962L364.189 244.984ZM363.956 214.123L363.447 211.166L360.937 211.598L360.956 214.146L363.956 214.123ZM376.523 211.463L376.864 270.441L382.863 270.406L382.523 211.429L376.523 211.463ZM379.355 267.467L366.364 269.701L367.381 275.614L380.372 273.38L379.355 267.467ZM369.26 270.841L348.401 243.411L343.625 247.043L364.484 274.473L369.26 270.841ZM345.505 242.271L345.169 242.328L346.185 248.242L346.521 248.184L345.505 242.271ZM342.677 245.299L342.818 276.291L348.818 276.264L348.677 245.271L342.677 245.299ZM345.309 273.321L329.742 275.998L330.759 281.911L346.326 279.234L345.309 273.321ZM333.251 278.937L332.91 219.96L326.91 219.995L327.251 278.972L333.251 278.937ZM330.418 222.934L343.634 220.662L342.617 214.748L329.402 217.021L330.418 222.934ZM340.729 219.51L361.345 246.867L366.137 243.256L345.521 215.899L340.729 219.51ZM364.25 248.018L364.698 247.941L363.681 242.028L363.233 242.105L364.25 248.018ZM367.189 244.962L366.956 214.1L360.956 214.146L361.189 245.007L367.189 244.962ZM364.464 217.08L380.031 214.403L379.014 208.489L363.447 211.166L364.464 217.08ZM345.174 346.332L348.173 346.319L348.173 346.314L345.174 346.332ZM341.654 363.08L338.97 361.739L338.97 361.739L341.654 363.08ZM332.013 374.567L333.761 377.005L333.761 377.005L332.013 374.567ZM303.77 379.136L304.834 376.331L303.77 379.136ZM293.357 370.376L295.91 368.8L295.91 368.8L293.357 370.376ZM289.429 354.073L292.429 354.057L292.429 354.05L292.429 354.043L289.429 354.073ZM292.883 337.279L290.193 335.95L290.193 335.95L292.883 337.279ZM302.561 325.669L300.805 323.238L300.805 323.238L302.561 325.669ZM330.827 321.068L329.747 323.868L329.753 323.87L330.827 321.068ZM341.227 329.917L338.664 331.476L338.669 331.485L341.227 329.917ZM329.186 347.236L332.186 347.226L332.186 347.212L332.186 347.199L329.186 347.236ZM327.873 338.93L325.072 340.003L325.074 340.008L327.873 338.93ZM324.169 334.32L322.711 336.942L322.721 336.948L322.732 336.953L324.169 334.32ZM311.086 336.858L309.078 334.63L309.078 334.63L311.086 336.858ZM305.416 353.169L308.416 353.191L308.416 353.159L308.416 353.128L305.416 353.169ZM306.673 361.485L303.895 362.618L303.9 362.629L303.905 362.64L306.673 361.485ZM310.493 365.93L309.131 368.603L309.139 368.608L309.148 368.612L310.493 365.93ZM323.487 363.379L321.498 361.133L321.489 361.141L323.487 363.379ZM327.746 356.795L324.921 355.785L324.918 355.793L324.915 355.802L327.746 356.795ZM342.174 346.345C342.199 352.385 341.094 357.487 338.97 361.739L344.338 364.42C346.96 359.171 348.202 353.107 348.173 346.319L342.174 346.345ZM338.97 361.739C336.801 366.083 333.897 369.525 330.264 372.129L333.761 377.005C338.237 373.796 341.761 369.579 344.338 364.42L338.97 361.739ZM330.264 372.129C326.588 374.766 322.467 376.48 317.863 377.272L318.88 383.185C324.355 382.243 329.328 380.184 333.761 377.005L330.264 372.129ZM317.863 377.272C312.924 378.121 308.611 377.763 304.834 376.331L302.707 381.941C307.646 383.814 313.067 384.184 318.88 383.185L317.863 377.272ZM304.834 376.331C301.13 374.926 298.167 372.458 295.91 368.8L290.804 371.952C293.715 376.668 297.694 380.04 302.707 381.941L304.834 376.331ZM295.91 368.8C293.701 365.222 292.462 360.378 292.429 354.057L286.429 354.088C286.465 361.131 287.844 367.156 290.804 371.952L295.91 368.8ZM292.429 354.043C292.369 348.013 293.452 342.898 295.572 338.608L290.193 335.95C287.58 341.237 286.361 347.317 286.429 354.103L292.429 354.043ZM295.572 338.608C297.736 334.23 300.652 330.749 304.318 328.101L300.805 323.238C296.299 326.492 292.763 330.75 290.193 335.95L295.572 338.608ZM304.318 328.101C308.024 325.424 312.177 323.687 316.813 322.89L315.796 316.977C310.279 317.926 305.269 320.013 300.805 323.238L304.318 328.101ZM316.813 322.89C321.706 322.049 325.987 322.418 329.747 323.868L331.906 318.269C326.98 316.37 321.58 315.982 315.796 316.977L316.813 322.89ZM329.753 323.87C333.456 325.289 336.415 327.78 338.664 331.476L343.79 328.358C340.894 323.599 336.92 320.191 331.9 318.267L329.753 323.87ZM338.669 331.485C340.889 335.105 342.135 339.991 342.174 346.35L348.173 346.314C348.13 339.235 346.745 333.177 343.784 328.349L338.669 331.485ZM332.186 347.199C332.141 343.616 331.678 340.461 330.673 337.851L325.074 340.008C325.735 341.724 326.147 344.107 326.187 347.274L332.186 347.199ZM330.674 337.856C329.65 335.184 328.012 333 325.607 331.687L322.732 336.953C323.592 337.423 324.424 338.312 325.072 340.003L330.674 337.856ZM325.628 331.698C323.228 330.364 320.454 330.128 317.567 330.624L318.584 336.537C320.549 336.199 321.838 336.457 322.711 336.942L325.628 331.698ZM317.567 330.624C314.302 331.186 311.436 332.504 309.078 334.63L313.095 339.086C314.53 337.793 316.323 336.926 318.584 336.537L317.567 330.624ZM309.078 334.63C306.756 336.723 305.068 339.407 303.96 342.572L309.623 344.555C310.447 342.2 311.623 340.413 313.095 339.086L309.078 334.63ZM303.96 342.572C302.852 345.735 302.363 349.299 302.416 353.21L308.416 353.128C308.37 349.753 308.797 346.914 309.623 344.555L303.96 342.572ZM302.416 353.146C302.389 356.789 302.827 359.997 303.895 362.618L309.451 360.352C308.792 358.735 308.392 356.399 308.416 353.191L302.416 353.146ZM303.905 362.64C304.997 365.258 306.698 367.364 309.131 368.603L311.855 363.257C310.961 362.802 310.115 361.944 309.442 360.33L303.905 362.64ZM309.148 368.612C311.549 369.817 314.271 370.025 317.109 369.537L316.092 363.624C314.153 363.958 312.803 363.733 311.839 363.249L309.148 368.612ZM317.109 369.537C320.328 368.984 323.157 367.696 325.486 365.617L321.489 361.141C320.086 362.394 318.324 363.24 316.092 363.624L317.109 369.537ZM325.477 365.624C327.796 363.57 329.478 360.92 330.577 357.788L324.915 355.802C324.105 358.11 322.948 359.849 321.498 361.133L325.477 365.624ZM330.571 357.804C331.687 354.681 332.2 351.136 332.186 347.226L326.186 347.247C326.198 350.635 325.751 353.462 324.921 355.785L330.571 357.804Z" fill="black" mask="url(#path-4-outside-1_8_45)"/>
<rect x="237.302" y="44.8265" width="210.548" height="314.797" rx="1.53679" transform="rotate(15 237.302 44.8265)" fill="#00AA00" stroke="black" stroke-width="0.283405"/>
<rect x="245.286" y="58.3404" width="188.132" height="292.823" rx="1.39509" transform="rotate(15 245.286 58.3404)" fill="#1F1E1D"/>
<ellipse cx="297.855" cy="223.956" rx="78.0414" ry="49.8953" transform="rotate(-15 297.855 223.956)" fill="#ED1C24"/>
<mask id="path-9-outside-2_8_45" maskUnits="userSpaceOnUse" x="207.55" y="181.99" width="189.567" height="95.7196" fill="black">
<rect fill="white" x="207.55" y="181.99" width="189.567" height="95.7196"/>
<path d="M251.763 208.936L267.33 206.259L267.543 244.042C267.584 248.532 266.573 252.597 264.509 256.238C262.46 259.858 259.578 262.88 255.864 265.306C252.146 267.714 247.833 269.339 242.924 270.183C237.977 271.034 233.649 270.894 229.937 269.764C226.223 268.616 223.319 266.588 221.224 263.682C219.144 260.753 218.084 257.044 218.042 252.554L217.829 214.771L233.396 212.094L233.602 248.495C233.627 250.316 234.038 251.869 234.835 253.154C235.633 254.439 236.726 255.376 238.115 255.963C239.5 256.532 241.079 256.664 242.852 256.359C244.644 256.051 246.229 255.375 247.606 254.331C248.998 253.265 250.08 251.955 250.85 250.4C251.621 248.846 251.993 247.158 251.969 245.337L251.763 208.936ZM324.341 196.455L324.682 255.433L311.69 257.666L290.831 230.237L290.495 230.294L290.636 261.287L275.069 263.964L274.728 204.987L287.943 202.714L308.559 230.071L309.007 229.994L308.774 199.132L324.341 196.455ZM387.428 216.163C387.455 222.577 386.282 228.159 383.909 232.91C381.536 237.662 378.322 241.491 374.267 244.398C370.213 247.305 365.666 249.192 360.626 250.059C355.25 250.983 350.383 250.619 346.025 248.966C341.667 247.313 338.196 244.394 335.612 240.207C333.028 236.02 331.718 230.585 331.684 223.903C331.62 217.496 332.771 211.898 335.138 207.109C337.504 202.321 340.73 198.451 344.816 195.5C348.902 192.549 353.483 190.637 358.56 189.764C363.898 188.846 368.739 189.224 373.081 190.899C377.443 192.57 380.91 195.52 383.481 199.747C386.072 203.972 387.388 209.443 387.428 216.163ZM371.441 217.067C371.399 213.692 370.961 210.923 370.128 208.76C369.292 206.579 368.057 205.042 366.424 204.151C364.788 203.241 362.757 202.994 360.33 203.411C357.568 203.886 355.238 204.979 353.341 206.689C351.444 208.398 350.013 210.634 349.046 213.394C348.08 216.155 347.621 219.356 347.671 222.999C347.645 226.424 348.064 229.196 348.928 231.316C349.811 233.431 351.084 234.913 352.748 235.761C354.431 236.605 356.467 236.822 358.856 236.411C361.581 235.943 363.876 234.875 365.742 233.209C367.627 231.54 369.046 229.345 370.001 226.625C370.974 223.902 371.454 220.716 371.441 217.067Z"/>
</mask>
<path d="M251.763 208.936L267.33 206.259L267.543 244.042C267.584 248.532 266.573 252.597 264.509 256.238C262.46 259.858 259.578 262.88 255.864 265.306C252.146 267.714 247.833 269.339 242.924 270.183C237.977 271.034 233.649 270.894 229.937 269.764C226.223 268.616 223.319 266.588 221.224 263.682C219.144 260.753 218.084 257.044 218.042 252.554L217.829 214.771L233.396 212.094L233.602 248.495C233.627 250.316 234.038 251.869 234.835 253.154C235.633 254.439 236.726 255.376 238.115 255.963C239.5 256.532 241.079 256.664 242.852 256.359C244.644 256.051 246.229 255.375 247.606 254.331C248.998 253.265 250.08 251.955 250.85 250.4C251.621 248.846 251.993 247.158 251.969 245.337L251.763 208.936ZM324.341 196.455L324.682 255.433L311.69 257.666L290.831 230.237L290.495 230.294L290.636 261.287L275.069 263.964L274.728 204.987L287.943 202.714L308.559 230.071L309.007 229.994L308.774 199.132L324.341 196.455ZM387.428 216.163C387.455 222.577 386.282 228.159 383.909 232.91C381.536 237.662 378.322 241.491 374.267 244.398C370.213 247.305 365.666 249.192 360.626 250.059C355.25 250.983 350.383 250.619 346.025 248.966C341.667 247.313 338.196 244.394 335.612 240.207C333.028 236.02 331.718 230.585 331.684 223.903C331.62 217.496 332.771 211.898 335.138 207.109C337.504 202.321 340.73 198.451 344.816 195.5C348.902 192.549 353.483 190.637 358.56 189.764C363.898 188.846 368.739 189.224 373.081 190.899C377.443 192.57 380.91 195.52 383.481 199.747C386.072 203.972 387.388 209.443 387.428 216.163ZM371.441 217.067C371.399 213.692 370.961 210.923 370.128 208.76C369.292 206.579 368.057 205.042 366.424 204.151C364.788 203.241 362.757 202.994 360.33 203.411C357.568 203.886 355.238 204.979 353.341 206.689C351.444 208.398 350.013 210.634 349.046 213.394C348.08 216.155 347.621 219.356 347.671 222.999C347.645 226.424 348.064 229.196 348.928 231.316C349.811 233.431 351.084 234.913 352.748 235.761C354.431 236.605 356.467 236.822 358.856 236.411C361.581 235.943 363.876 234.875 365.742 233.209C367.627 231.54 369.046 229.345 370.001 226.625C370.974 223.902 371.454 220.716 371.441 217.067Z" fill="#F8DA27"/>
<path d="M251.763 208.936L251.254 205.979L248.748 206.41L248.763 208.953L251.763 208.936ZM267.33 206.259L270.33 206.242L270.31 202.702L266.821 203.302L267.33 206.259ZM267.543 244.042L264.543 244.059L264.543 244.07L267.543 244.042ZM264.509 256.238L261.899 254.759L261.898 254.76L264.509 256.238ZM255.864 265.306L257.494 267.824L257.504 267.818L255.864 265.306ZM229.937 269.764L229.051 272.631L229.064 272.634L229.937 269.764ZM221.224 263.682L218.778 265.418L218.784 265.427L218.79 265.436L221.224 263.682ZM218.042 252.554L215.042 252.571L215.042 252.582L218.042 252.554ZM217.829 214.771L217.32 211.814L214.815 212.245L214.829 214.788L217.829 214.771ZM233.396 212.094L236.396 212.077L236.376 208.538L232.887 209.138L233.396 212.094ZM233.602 248.495L230.602 248.512L230.602 248.524L230.602 248.536L233.602 248.495ZM234.835 253.154L237.384 251.572L234.835 253.154ZM238.115 255.963L236.945 258.726L236.96 258.732L236.975 258.738L238.115 255.963ZM247.606 254.331L249.418 256.722L249.429 256.713L247.606 254.331ZM251.969 245.337L248.969 245.354L248.969 245.366L248.969 245.378L251.969 245.337ZM252.271 211.892L267.838 209.216L266.821 203.302L251.254 205.979L252.271 211.892ZM264.33 206.276L264.543 244.059L270.543 244.025L270.33 206.242L264.33 206.276ZM264.543 244.07C264.58 248.071 263.684 251.61 261.899 254.759L267.119 257.718C269.462 253.584 270.589 248.992 270.543 244.014L264.543 244.07ZM261.898 254.76C260.101 257.935 257.564 260.613 254.223 262.794L257.504 267.818C261.593 265.148 264.819 261.78 267.12 257.716L261.898 254.76ZM254.233 262.788C250.896 264.949 246.974 266.443 242.415 267.227L243.432 273.14C248.691 272.236 253.396 270.478 257.494 267.824L254.233 262.788ZM242.415 267.227C237.799 268.021 233.963 267.854 230.811 266.895L229.064 272.634C233.334 273.935 238.155 274.047 243.432 273.14L242.415 267.227ZM230.824 266.898C227.676 265.925 225.338 264.259 223.658 261.928L218.79 265.436C221.299 268.917 224.77 271.307 229.051 272.631L230.824 266.898ZM223.67 261.945C222.025 259.628 221.079 256.557 221.042 252.526L215.042 252.582C215.088 257.53 216.263 261.878 218.778 265.418L223.67 261.945ZM221.042 252.537L220.829 214.754L214.829 214.788L215.042 252.571L221.042 252.537ZM218.337 217.728L233.904 215.051L232.887 209.138L217.32 211.814L218.337 217.728ZM230.396 212.111L230.602 248.512L236.602 248.478L236.396 212.077L230.396 212.111ZM230.602 248.536C230.633 250.791 231.148 252.902 232.286 254.736L237.384 251.572C236.928 250.837 236.62 249.842 236.601 248.454L230.602 248.536ZM232.286 254.736C233.41 256.546 234.984 257.896 236.945 258.726L239.284 253.2C238.468 252.855 237.856 252.332 237.384 251.572L232.286 254.736ZM236.975 258.738C238.978 259.561 241.145 259.697 243.361 259.316L242.344 253.402C241.013 253.631 240.022 253.503 239.254 253.188L236.975 258.738ZM243.361 259.316C245.601 258.93 247.638 258.071 249.418 256.722L245.794 251.94C244.82 252.679 243.688 253.171 242.344 253.402L243.361 259.316ZM249.429 256.713C251.183 255.371 252.562 253.703 253.538 251.733L248.162 249.068C247.598 250.207 246.814 251.159 245.783 251.949L249.429 256.713ZM253.538 251.733C254.531 249.73 254.999 247.568 254.968 245.295L248.969 245.378C248.988 246.747 248.711 247.962 248.162 249.068L253.538 251.733ZM254.969 245.32L254.763 208.919L248.763 208.953L248.969 245.354L254.969 245.32ZM324.341 196.455L327.341 196.438L327.32 192.899L323.832 193.499L324.341 196.455ZM324.682 255.433L325.19 258.389L327.696 257.958L327.682 255.415L324.682 255.433ZM311.69 257.666L309.303 259.482L310.405 260.932L312.199 260.623L311.69 257.666ZM290.831 230.237L293.219 228.421L292.117 226.971L290.323 227.28L290.831 230.237ZM290.495 230.294L289.987 227.338L287.484 227.768L287.495 230.308L290.495 230.294ZM290.636 261.287L291.144 264.244L293.647 263.813L293.636 261.273L290.636 261.287ZM275.069 263.964L272.069 263.981L272.089 267.52L275.577 266.92L275.069 263.964ZM274.728 204.987L274.22 202.03L271.713 202.461L271.728 205.004L274.728 204.987ZM287.943 202.714L290.339 200.909L289.238 199.448L287.435 199.758L287.943 202.714ZM308.559 230.071L306.164 231.876L307.265 233.337L309.068 233.027L308.559 230.071ZM309.007 229.994L309.516 232.95L312.027 232.518L312.007 229.971L309.007 229.994ZM308.774 199.132L308.265 196.176L305.755 196.607L305.774 199.155L308.774 199.132ZM321.341 196.473L321.682 255.45L327.682 255.415L327.341 196.438L321.341 196.473ZM324.173 252.476L311.182 254.71L312.199 260.623L325.19 258.389L324.173 252.476ZM314.078 255.851L293.219 228.421L288.443 232.053L309.303 259.482L314.078 255.851ZM290.323 227.28L289.987 227.338L291.004 233.251L291.339 233.193L290.323 227.28ZM287.495 230.308L287.636 261.301L293.636 261.273L293.495 230.281L287.495 230.308ZM290.127 258.33L274.56 261.007L275.577 266.92L291.144 264.244L290.127 258.33ZM278.069 263.947L277.728 204.969L271.728 205.004L272.069 263.981L278.069 263.947ZM275.237 207.943L288.452 205.671L287.435 199.758L274.22 202.03L275.237 207.943ZM285.547 204.52L306.164 231.876L310.955 228.265L290.339 200.909L285.547 204.52ZM309.068 233.027L309.516 232.95L308.499 227.037L308.051 227.114L309.068 233.027ZM312.007 229.971L311.774 199.11L305.774 199.155L306.007 230.016L312.007 229.971ZM309.282 202.089L324.849 199.412L323.832 193.499L308.265 196.176L309.282 202.089ZM387.428 216.163L390.428 216.15L390.428 216.144L387.428 216.163ZM383.909 232.91L381.225 231.57L381.225 231.57L383.909 232.91ZM374.267 244.398L376.016 246.836L376.016 246.836L374.267 244.398ZM346.025 248.966L347.089 246.161L346.025 248.966ZM335.612 240.207L338.165 238.631L338.165 238.631L335.612 240.207ZM331.684 223.903L334.684 223.888L334.684 223.881L334.684 223.873L331.684 223.903ZM335.138 207.109L332.448 205.78L332.448 205.78L335.138 207.109ZM344.816 195.5L343.059 193.068L343.059 193.068L344.816 195.5ZM373.081 190.899L372.002 193.698L372.008 193.7L373.081 190.899ZM383.481 199.747L380.918 201.307L380.924 201.316L383.481 199.747ZM371.441 217.067L374.441 217.056L374.441 217.043L374.441 217.029L371.441 217.067ZM370.128 208.76L367.327 209.834L367.329 209.838L370.128 208.76ZM366.424 204.151L364.966 206.772L364.976 206.778L364.987 206.784L366.424 204.151ZM353.341 206.689L351.332 204.46L351.332 204.46L353.341 206.689ZM347.671 222.999L350.671 223.022L350.671 222.99L350.671 222.958L347.671 222.999ZM348.928 231.316L346.15 232.448L346.155 232.459L346.159 232.471L348.928 231.316ZM352.748 235.761L351.386 238.434L351.394 238.438L351.402 238.442L352.748 235.761ZM365.742 233.209L363.753 230.964L363.744 230.972L365.742 233.209ZM370.001 226.625L367.176 225.616L367.173 225.624L367.17 225.632L370.001 226.625ZM384.428 216.175C384.454 222.216 383.349 227.317 381.225 231.57L386.593 234.251C389.215 229.001 390.457 222.937 390.428 216.15L384.428 216.175ZM381.225 231.57C379.056 235.913 376.152 239.355 372.519 241.96L376.016 246.836C380.492 243.626 384.016 239.41 386.593 234.251L381.225 231.57ZM372.519 241.96C368.843 244.596 364.722 246.31 360.118 247.102L361.134 253.015C366.61 252.074 371.583 250.014 376.016 246.836L372.519 241.96ZM360.118 247.102C355.179 247.951 350.866 247.594 347.089 246.161L344.961 251.771C349.901 253.644 355.322 254.015 361.134 253.015L360.118 247.102ZM347.089 246.161C343.385 244.756 340.422 242.289 338.165 238.631L333.059 241.782C335.969 246.498 339.949 249.87 344.961 251.771L347.089 246.161ZM338.165 238.631C335.956 235.052 334.716 230.209 334.684 223.888L328.684 223.919C328.72 230.961 330.099 236.987 333.059 241.782L338.165 238.631ZM334.684 223.873C334.623 217.844 335.707 212.728 337.827 208.438L332.448 205.78C329.835 211.067 328.616 217.148 328.684 223.933L334.684 223.873ZM337.827 208.438C339.991 204.061 342.907 200.58 346.573 197.932L343.059 193.068C338.554 196.322 335.018 200.58 332.448 205.78L337.827 208.438ZM346.573 197.932C350.279 195.255 354.431 193.518 359.068 192.721L358.051 186.807C352.534 187.756 347.524 189.843 343.059 193.068L346.573 197.932ZM359.068 192.721C363.961 191.879 368.242 192.248 372.002 193.698L374.161 188.1C369.235 186.2 363.835 185.813 358.051 186.807L359.068 192.721ZM372.008 193.7C375.711 195.119 378.67 197.61 380.918 201.307L386.044 198.188C383.149 193.429 379.175 190.021 374.155 188.098L372.008 193.7ZM380.924 201.316C383.144 204.936 384.39 209.821 384.428 216.181L390.428 216.144C390.385 209.066 389 203.008 386.039 198.179L380.924 201.316ZM374.441 217.029C374.396 213.446 373.933 210.291 372.928 207.682L367.329 209.838C367.99 211.554 368.402 213.937 368.442 217.104L374.441 217.029ZM372.929 207.686C371.905 205.015 370.267 202.831 367.862 201.517L364.987 206.784C365.847 207.254 366.679 208.142 367.327 209.834L372.929 207.686ZM367.882 201.529C365.482 200.194 362.709 199.958 359.822 200.455L360.838 206.368C362.804 206.03 364.093 206.287 364.966 206.772L367.882 201.529ZM359.822 200.455C356.557 201.016 353.691 202.334 351.332 204.46L355.35 208.917C356.785 207.624 358.578 206.757 360.838 206.368L359.822 200.455ZM351.332 204.46C349.011 206.553 347.323 209.237 346.215 212.403L351.878 214.386C352.702 212.03 353.878 210.244 355.35 208.917L351.332 204.46ZM346.215 212.403C345.107 215.565 344.618 219.129 344.671 223.04L350.671 222.958C350.625 219.584 351.052 216.744 351.878 214.386L346.215 212.403ZM344.671 222.976C344.643 226.619 345.081 229.827 346.15 232.448L351.706 230.183C351.047 228.566 350.647 226.229 350.671 223.022L344.671 222.976ZM346.159 232.471C347.251 235.088 348.953 237.194 351.386 238.434L354.11 233.088C353.215 232.632 352.37 231.775 351.697 230.16L346.159 232.471ZM351.402 238.442C353.804 239.647 356.526 239.856 359.364 239.368L358.347 233.455C356.408 233.788 355.058 233.563 354.094 233.08L351.402 238.442ZM359.364 239.368C362.583 238.814 365.412 237.526 367.74 235.447L363.744 230.972C362.341 232.224 360.579 233.071 358.347 233.455L359.364 239.368ZM367.731 235.455C370.051 233.4 371.733 230.75 372.831 227.619L367.17 225.632C366.36 227.941 365.202 229.68 363.753 230.964L367.731 235.455ZM372.826 227.635C373.942 224.511 374.455 220.966 374.441 217.056L368.441 217.077C368.453 220.466 368.006 223.293 367.176 225.616L372.826 227.635Z" fill="black" mask="url(#path-9-outside-2_8_45)"/>
<rect x="168.302" y="0.116619" width="238.283" height="356.283" rx="1.53679" transform="rotate(15 168.302 0.116619)" fill="#FF5555" stroke="black" stroke-width="0.283405"/>
<rect x="177.326" y="15.3902" width="212.947" height="331.448" rx="1.39509" transform="rotate(15 177.326 15.3902)" fill="#1F1E1D"/>
<ellipse cx="236.829" cy="202.851" rx="88.3354" ry="56.4767" transform="rotate(-15 236.829 202.851)" fill="#ED1C24"/>
<mask id="path-14-outside-3_8_45" maskUnits="userSpaceOnUse" x="125.275" y="154.651" width="226.094" height="113.478" fill="black">
<rect fill="white" x="125.275" y="154.651" width="226.094" height="113.478"/>
<path d="M178.262 186.388L196.942 183.176L197.198 228.516C197.248 233.904 196.034 238.782 193.557 243.151C191.099 247.495 187.641 251.122 183.183 254.033C178.722 256.922 173.546 258.872 167.655 259.885C161.719 260.906 156.525 260.739 152.072 259.383C147.614 258.005 144.129 255.571 141.615 252.083C139.12 248.569 137.847 244.118 137.797 238.73L137.541 193.391L156.222 190.178L156.469 233.859C156.499 236.045 156.992 237.909 157.949 239.451C158.906 240.993 160.218 242.116 161.884 242.821C163.547 243.504 165.442 243.662 167.57 243.296C169.72 242.927 171.621 242.115 173.274 240.863C174.945 239.584 176.243 238.011 177.167 236.146C178.092 234.28 178.539 232.255 178.509 230.069L178.262 186.388ZM265.356 171.412L265.765 242.184L250.175 244.865L225.144 211.949L224.741 212.019L224.91 249.21L206.229 252.422L205.82 181.649L221.679 178.923L246.418 211.75L246.955 211.658L246.675 174.624L265.356 171.412ZM341.061 195.06C341.093 202.757 339.685 209.456 336.837 215.158C333.99 220.859 330.133 225.454 325.268 228.943C320.402 232.432 314.946 234.696 308.898 235.736C302.447 236.845 296.607 236.408 291.377 234.425C286.147 232.442 281.981 228.938 278.881 223.913C275.78 218.889 274.209 212.368 274.167 204.35C274.09 196.66 275.472 189.943 278.312 184.197C281.152 178.45 285.023 173.807 289.926 170.265C294.828 166.724 300.326 164.43 306.418 163.382C312.824 162.281 318.633 162.735 323.844 164.744C329.078 166.75 333.238 170.289 336.324 175.362C339.433 180.432 341.012 186.998 341.061 195.06ZM321.876 196.146C321.825 192.096 321.3 188.773 320.3 186.177C319.297 183.56 317.815 181.716 315.856 180.646C313.892 179.554 311.454 179.258 308.543 179.759C305.228 180.329 302.432 181.64 300.156 183.692C297.88 185.744 296.162 188.426 295.002 191.738C293.842 195.051 293.292 198.893 293.352 203.264C293.321 207.375 293.824 210.701 294.86 213.244C295.92 215.783 297.448 217.561 299.444 218.578C301.464 219.592 303.907 219.852 306.774 219.359C310.044 218.797 312.798 217.516 315.037 215.517C317.299 213.513 319.002 210.88 320.147 207.616C321.315 204.348 321.891 200.525 321.876 196.146Z"/>
</mask>
<path d="M178.262 186.388L196.942 183.176L197.198 228.516C197.248 233.904 196.034 238.782 193.557 243.151C191.099 247.495 187.641 251.122 183.183 254.033C178.722 256.922 173.546 258.872 167.655 259.885C161.719 260.906 156.525 260.739 152.072 259.383C147.614 258.005 144.129 255.571 141.615 252.083C139.12 248.569 137.847 244.118 137.797 238.73L137.541 193.391L156.222 190.178L156.469 233.859C156.499 236.045 156.992 237.909 157.949 239.451C158.906 240.993 160.218 242.116 161.884 242.821C163.547 243.504 165.442 243.662 167.57 243.296C169.72 242.927 171.621 242.115 173.274 240.863C174.945 239.584 176.243 238.011 177.167 236.146C178.092 234.28 178.539 232.255 178.509 230.069L178.262 186.388ZM265.356 171.412L265.765 242.184L250.175 244.865L225.144 211.949L224.741 212.019L224.91 249.21L206.229 252.422L205.82 181.649L221.679 178.923L246.418 211.75L246.955 211.658L246.675 174.624L265.356 171.412ZM341.061 195.06C341.093 202.757 339.685 209.456 336.837 215.158C333.99 220.859 330.133 225.454 325.268 228.943C320.402 232.432 314.946 234.696 308.898 235.736C302.447 236.845 296.607 236.408 291.377 234.425C286.147 232.442 281.981 228.938 278.881 223.913C275.78 218.889 274.209 212.368 274.167 204.35C274.09 196.66 275.472 189.943 278.312 184.197C281.152 178.45 285.023 173.807 289.926 170.265C294.828 166.724 300.326 164.43 306.418 163.382C312.824 162.281 318.633 162.735 323.844 164.744C329.078 166.75 333.238 170.289 336.324 175.362C339.433 180.432 341.012 186.998 341.061 195.06ZM321.876 196.146C321.825 192.096 321.3 188.773 320.3 186.177C319.297 183.56 317.815 181.716 315.856 180.646C313.892 179.554 311.454 179.258 308.543 179.759C305.228 180.329 302.432 181.64 300.156 183.692C297.88 185.744 296.162 188.426 295.002 191.738C293.842 195.051 293.292 198.893 293.352 203.264C293.321 207.375 293.824 210.701 294.86 213.244C295.92 215.783 297.448 217.561 299.444 218.578C301.464 219.592 303.907 219.852 306.774 219.359C310.044 218.797 312.798 217.516 315.037 215.517C317.299 213.513 319.002 210.88 320.147 207.616C321.315 204.348 321.891 200.525 321.876 196.146Z" fill="#F8DA27"/>
<path d="M178.262 186.388L177.753 183.432L175.247 183.863L175.262 186.405L178.262 186.388ZM196.942 183.176L199.942 183.159L199.922 179.62L196.434 180.22L196.942 183.176ZM197.198 228.516L194.198 228.533L194.198 228.544L197.198 228.516ZM193.557 243.151L190.948 241.672L190.947 241.674L193.557 243.151ZM183.183 254.033L184.814 256.551L184.824 256.545L183.183 254.033ZM152.072 259.383L151.185 262.249L151.198 262.253L152.072 259.383ZM141.615 252.083L139.169 253.82L139.175 253.829L139.181 253.837L141.615 252.083ZM137.797 238.73L134.797 238.747L134.797 238.758L137.797 238.73ZM137.541 193.391L137.033 190.434L134.527 190.865L134.541 193.408L137.541 193.391ZM156.222 190.178L159.222 190.161L159.202 186.622L155.713 187.222L156.222 190.178ZM156.469 233.859L153.469 233.876L153.469 233.888L153.469 233.9L156.469 233.859ZM161.884 242.821L160.715 245.584L160.73 245.59L160.744 245.596L161.884 242.821ZM173.274 240.863L175.086 243.253L175.097 243.245L173.274 240.863ZM178.509 230.069L175.509 230.086L175.509 230.098L175.509 230.11L178.509 230.069ZM178.77 189.345L197.451 186.133L196.434 180.22L177.753 183.432L178.77 189.345ZM193.942 183.193L194.198 228.533L200.198 228.499L199.942 183.159L193.942 183.193ZM194.198 228.544C194.244 233.443 193.145 237.795 190.948 241.672L196.167 244.631C198.924 239.769 200.252 234.364 200.198 228.488L194.198 228.544ZM190.947 241.674C188.74 245.572 185.626 248.854 181.543 251.521L184.824 256.545C189.655 253.389 193.458 249.417 196.168 244.629L190.947 241.674ZM181.553 251.515C177.472 254.157 172.687 255.976 167.146 256.929L168.163 262.842C174.404 261.769 179.972 259.686 184.814 256.551L181.553 251.515ZM167.146 256.929C161.541 257.893 156.839 257.698 152.945 256.513L151.198 262.253C156.211 263.779 161.897 263.92 168.163 262.842L167.146 256.929ZM152.958 256.517C149.067 255.314 146.148 253.242 144.049 250.329L139.181 253.837C142.109 257.9 146.161 260.695 151.185 262.249L152.958 256.517ZM144.061 250.346C142.001 247.444 140.843 243.632 140.797 238.703L134.797 238.758C134.851 244.605 136.239 249.694 139.169 253.82L144.061 250.346ZM140.797 238.714L140.541 193.374L134.541 193.408L134.797 238.747L140.797 238.714ZM138.05 196.347L156.73 193.135L155.713 187.222L137.033 190.434L138.05 196.347ZM153.222 190.195L153.469 233.876L159.469 233.842L159.222 190.161L153.222 190.195ZM153.469 233.9C153.505 236.519 154.102 238.941 155.4 241.033L160.498 237.869C159.882 236.876 159.492 235.571 159.468 233.818L153.469 233.9ZM155.4 241.033C156.683 243.1 158.476 244.637 160.715 245.584L163.053 240.058C161.96 239.596 161.129 238.886 160.498 237.869L155.4 241.033ZM160.744 245.596C163.025 246.533 165.507 246.695 168.078 246.253L167.061 240.34C165.376 240.629 164.068 240.475 163.024 240.046L160.744 245.596ZM168.078 246.253C170.676 245.806 173.03 244.812 175.086 243.253L171.461 238.472C170.212 239.419 168.763 240.047 167.061 240.34L168.078 246.253ZM175.097 243.245C177.129 241.69 178.724 239.76 179.855 237.478L174.479 234.814C173.761 236.263 172.761 237.477 171.45 238.48L175.097 243.245ZM179.855 237.478C181.002 235.165 181.545 232.665 181.509 230.028L175.509 230.11C175.533 231.844 175.182 233.396 174.479 234.814L179.855 237.478ZM181.509 230.052L181.262 186.371L175.262 186.405L175.509 230.086L181.509 230.052ZM265.356 171.412L268.356 171.395L268.335 167.855L264.847 168.455L265.356 171.412ZM265.765 242.184L266.273 245.141L268.779 244.71L268.765 242.167L265.765 242.184ZM250.175 244.865L247.787 246.681L248.889 248.13L250.684 247.822L250.175 244.865ZM225.144 211.949L227.532 210.133L226.43 208.684L224.636 208.993L225.144 211.949ZM224.741 212.019L224.232 209.062L221.729 209.492L221.741 212.032L224.741 212.019ZM224.91 249.21L225.418 252.166L227.921 251.736L227.91 249.196L224.91 249.21ZM206.229 252.422L203.229 252.439L203.25 255.978L206.738 255.379L206.229 252.422ZM205.82 181.649L205.312 178.693L202.806 179.124L202.82 181.667L205.82 181.649ZM221.679 178.923L224.074 177.117L222.973 175.656L221.17 175.966L221.679 178.923ZM246.418 211.75L244.022 213.556L245.123 215.017L246.926 214.707L246.418 211.75ZM246.955 211.658L247.464 214.614L249.975 214.183L249.955 211.635L246.955 211.658ZM246.675 174.624L246.167 171.667L243.656 172.099L243.675 174.647L246.675 174.624ZM262.356 171.429L262.765 242.202L268.765 242.167L268.356 171.395L262.356 171.429ZM265.256 239.228L249.667 241.909L250.684 247.822L266.273 245.141L265.256 239.228ZM252.563 243.049L227.532 210.133L222.756 213.765L247.787 246.681L252.563 243.049ZM224.636 208.993L224.232 209.062L225.249 214.975L225.652 214.906L224.636 208.993ZM221.741 212.032L221.91 249.223L227.91 249.196L227.741 212.005L221.741 212.032ZM224.401 246.253L205.721 249.465L206.738 255.379L225.418 252.166L224.401 246.253ZM209.229 252.405L208.82 181.632L202.82 181.667L203.229 252.439L209.229 252.405ZM206.329 184.606L222.187 181.879L221.17 175.966L205.312 178.693L206.329 184.606ZM219.283 180.728L244.022 213.556L248.814 209.945L224.074 177.117L219.283 180.728ZM246.926 214.707L247.464 214.614L246.447 208.701L245.909 208.794L246.926 214.707ZM249.955 211.635L249.675 174.601L243.675 174.647L243.956 211.68L249.955 211.635ZM247.184 177.581L265.864 174.368L264.847 168.455L246.167 171.667L247.184 177.581ZM341.061 195.06L344.061 195.048L344.061 195.042L341.061 195.06ZM336.837 215.158L334.154 213.817L336.837 215.158ZM325.268 228.943L327.016 231.381L325.268 228.943ZM291.377 234.425L292.441 231.62L291.377 234.425ZM278.881 223.913L281.434 222.338L278.881 223.913ZM274.167 204.349L277.167 204.334L277.167 204.327L277.167 204.319L274.167 204.349ZM278.312 184.197L275.623 182.867L278.312 184.197ZM289.926 170.265L288.169 167.833L289.926 170.265ZM323.844 164.744L322.765 167.543L322.771 167.545L323.844 164.744ZM336.324 175.362L333.761 176.921L333.767 176.931L336.324 175.362ZM321.876 196.146L324.876 196.135L324.876 196.122L324.876 196.108L321.876 196.146ZM320.3 186.177L317.499 187.251L317.501 187.256L320.3 186.177ZM315.856 180.646L314.397 183.268L314.408 183.274L314.418 183.279L315.856 180.646ZM300.156 183.692L298.147 181.464L298.147 181.464L300.156 183.692ZM293.352 203.264L296.352 203.287L296.352 203.255L296.352 203.223L293.352 203.264ZM294.86 213.244L292.082 214.377L292.087 214.388L292.092 214.399L294.86 213.244ZM299.444 218.578L298.083 221.252L298.091 221.256L298.099 221.26L299.444 218.578ZM315.037 215.517L313.048 213.271L313.039 213.279L315.037 215.517ZM320.147 207.616L317.322 206.606L317.319 206.614L317.317 206.623L320.147 207.616ZM338.061 195.073C338.091 202.397 336.752 208.614 334.154 213.817L339.521 216.498C342.618 210.298 344.094 203.118 344.061 195.048L338.061 195.073ZM334.154 213.817C331.509 219.111 327.963 223.319 323.519 226.505L327.016 231.381C332.303 227.59 336.47 222.607 339.521 216.498L334.154 213.817ZM323.519 226.505C319.032 229.722 314.001 231.814 308.389 232.779L309.406 238.692C315.89 237.578 321.772 235.141 327.016 231.381L323.519 226.505ZM308.389 232.779C302.376 233.813 297.09 233.383 292.441 231.62L290.313 237.23C296.124 239.433 302.518 239.877 309.406 238.692L308.389 232.779ZM292.441 231.62C287.865 229.885 284.208 226.833 281.434 222.338L276.328 225.489C279.755 231.043 284.429 234.999 290.313 237.23L292.441 231.62ZM281.434 222.338C278.708 217.922 277.207 211.991 277.167 204.334L271.167 204.365C271.21 212.744 272.851 219.856 276.328 225.489L281.434 222.338ZM277.167 204.319C277.094 197.008 278.408 190.773 281.001 185.526L275.623 182.867C272.536 189.112 271.087 196.312 271.168 204.38L277.167 204.319ZM281.001 185.526C283.638 180.191 287.2 175.935 291.682 172.697L288.169 167.833C282.847 171.678 278.666 176.71 275.623 182.867L281.001 185.526ZM291.682 172.697C296.206 169.43 301.275 167.311 306.927 166.339L305.91 160.426C299.377 161.549 293.451 164.019 288.169 167.833L291.682 172.697ZM306.927 166.339C312.888 165.314 318.137 165.759 322.765 167.543L324.924 161.945C319.129 159.711 312.761 159.247 305.91 160.426L306.927 166.339ZM322.771 167.545C327.346 169.299 330.999 172.38 333.761 176.921L338.887 173.803C335.478 168.199 330.81 164.201 324.918 161.943L322.771 167.545ZM333.767 176.931C336.505 181.395 338.014 187.375 338.061 195.079L344.061 195.042C344.01 186.62 342.361 179.468 338.882 173.794L333.767 176.931ZM324.876 196.108C324.823 191.85 324.272 188.141 323.1 185.099L317.501 187.256C318.329 189.404 318.828 192.341 318.876 196.183L324.876 196.108ZM323.102 185.104C321.91 181.996 320.025 179.504 317.293 178.013L314.418 183.279C315.605 183.928 316.684 185.124 317.499 187.251L323.102 185.104ZM317.314 178.024C314.587 176.508 311.407 176.223 308.034 176.802L309.051 182.716C311.502 182.294 313.198 182.601 314.397 183.268L317.314 178.024ZM308.034 176.802C304.217 177.459 300.885 178.995 298.147 181.464L302.165 185.92C303.979 184.285 306.238 183.199 309.051 182.716L308.034 176.802ZM298.147 181.464C295.446 183.898 293.472 187.029 292.171 190.747L297.833 192.73C298.852 189.822 300.313 187.589 302.165 185.92L298.147 181.464ZM292.171 190.747C290.87 194.462 290.289 198.666 290.352 203.305L296.352 203.223C296.295 199.12 296.814 195.641 297.833 192.73L292.171 190.747ZM290.352 203.242C290.319 207.57 290.841 211.332 292.082 214.377L297.638 212.111C296.806 210.07 296.322 207.18 296.352 203.287L290.352 203.242ZM292.092 214.399C293.36 217.44 295.316 219.842 298.083 221.252L300.806 215.905C299.579 215.28 298.479 214.126 297.629 212.089L292.092 214.399ZM298.099 221.26C300.836 222.634 303.966 222.886 307.282 222.316L306.265 216.402C303.847 216.818 302.091 216.55 300.79 215.897L298.099 221.26ZM307.282 222.316C311.046 221.668 314.334 220.167 317.036 217.754L313.039 213.279C311.263 214.865 309.042 215.925 306.265 216.402L307.282 222.316ZM317.027 217.762C319.723 215.374 321.689 212.285 322.978 208.609L317.317 206.623C316.316 209.475 314.874 211.653 313.048 213.271L317.027 217.762ZM322.972 208.625C324.283 204.957 324.892 200.775 324.876 196.135L318.876 196.156C318.89 200.274 318.347 203.739 317.322 206.606L322.972 208.625Z" fill="black" mask="url(#path-14-outside-3_8_45)"/>
<rect x="0.997044" y="61.74" width="238.283" height="356.283" rx="1.53679" transform="rotate(-15 0.997044 61.74)" fill="#FFAA00" stroke="black" stroke-width="0.283405"/>
<rect x="16.4483" y="70.4556" width="212.947" height="331.448" rx="1.39509" transform="rotate(-15 16.4483 70.4556)" fill="#1F1E1D"/>
<ellipse cx="161.711" cy="203.05" rx="88.3354" ry="56.4767" transform="rotate(-45 161.711 203.05)" fill="#ED1C24"/>
<mask id="path-19-outside-4_8_45" maskUnits="userSpaceOnUse" x="59.3044" y="110.647" width="215.936" height="198.103" fill="black">
<rect fill="white" x="59.3044" y="110.647" width="215.936" height="198.103"/>
<path d="M102.758 218.076L117.33 205.954L140.221 245.092C142.958 249.733 144.347 254.564 144.386 259.587C144.428 264.577 143.247 269.448 140.842 274.197C138.423 278.93 134.916 283.207 130.321 287.03C125.691 290.882 121.109 293.334 116.574 294.386C112.025 295.421 107.79 295.057 103.869 293.293C99.9506 291.497 96.6229 288.279 93.8856 283.638L70.9943 244.501L85.5659 232.379L107.62 270.084C108.739 271.962 110.098 273.329 111.698 274.186C113.298 275.043 114.995 275.36 116.791 275.137C118.572 274.897 120.293 274.087 121.952 272.706C123.63 271.311 124.871 269.658 125.676 267.746C126.483 265.803 126.821 263.793 126.689 261.715C126.557 259.637 125.931 257.659 124.813 255.781L102.758 218.076ZM170.695 161.559L206.436 222.646L194.275 232.762L156.14 216.772L155.825 217.033L174.567 249.157L159.996 261.279L124.255 200.193L136.625 189.902L174.464 205.962L174.883 205.613L156.124 173.681L170.695 161.559ZM248.082 144.187C251.958 150.837 254.089 157.342 254.473 163.704C254.858 170.065 253.816 175.973 251.346 181.427C248.877 186.881 245.284 191.57 240.566 195.494C235.534 199.68 230.258 202.222 224.737 203.12C219.216 204.017 213.857 203.065 208.659 200.264C203.461 197.464 198.84 192.602 194.795 185.678C190.884 179.058 188.722 172.549 188.308 166.153C187.895 159.757 188.925 153.799 191.401 148.281C193.876 142.763 197.49 138.028 202.242 134.074C207.239 129.917 212.496 127.406 218.014 126.541C223.55 125.661 228.922 126.646 234.131 129.496C239.358 132.332 244.008 137.229 248.082 144.187ZM232.011 154.719C229.942 151.237 227.825 148.622 225.662 146.874C223.484 145.109 221.279 144.253 219.047 144.307C216.8 144.342 214.541 145.305 212.27 147.195C209.684 149.346 207.919 151.879 206.973 154.794C206.028 157.709 205.881 160.891 206.533 164.34C207.185 167.788 208.63 171.391 210.867 175.146C212.895 178.721 214.994 181.351 217.163 183.035C219.35 184.704 221.563 185.48 223.8 185.362C226.056 185.23 228.302 184.234 230.538 182.374C233.089 180.252 234.834 177.765 235.773 174.914C236.73 172.049 236.889 168.916 236.248 165.517C235.626 162.103 234.213 158.504 232.011 154.719Z"/>
</mask>
<path d="M102.758 218.076L117.33 205.954L140.221 245.092C142.958 249.733 144.347 254.564 144.386 259.587C144.428 264.577 143.247 269.448 140.842 274.197C138.423 278.93 134.916 283.207 130.321 287.03C125.691 290.882 121.109 293.334 116.574 294.386C112.025 295.421 107.79 295.057 103.869 293.293C99.9506 291.497 96.6229 288.279 93.8856 283.638L70.9943 244.501L85.5659 232.379L107.62 270.084C108.739 271.962 110.098 273.329 111.698 274.186C113.298 275.043 114.995 275.36 116.791 275.137C118.572 274.897 120.293 274.087 121.952 272.706C123.63 271.311 124.871 269.658 125.676 267.746C126.483 265.803 126.821 263.793 126.689 261.715C126.557 259.637 125.931 257.659 124.813 255.781L102.758 218.076ZM170.695 161.559L206.436 222.646L194.275 232.762L156.14 216.772L155.825 217.033L174.567 249.157L159.996 261.279L124.255 200.193L136.625 189.902L174.464 205.962L174.883 205.613L156.124 173.681L170.695 161.559ZM248.082 144.187C251.958 150.837 254.089 157.342 254.473 163.704C254.858 170.065 253.816 175.973 251.346 181.427C248.877 186.881 245.284 191.57 240.566 195.494C235.534 199.68 230.258 202.222 224.737 203.12C219.216 204.017 213.857 203.065 208.659 200.264C203.461 197.464 198.84 192.602 194.795 185.678C190.884 179.058 188.722 172.549 188.308 166.153C187.895 159.757 188.925 153.799 191.401 148.281C193.876 142.763 197.49 138.028 202.242 134.074C207.239 129.917 212.496 127.406 218.014 126.541C223.55 125.661 228.922 126.646 234.131 129.496C239.358 132.332 244.008 137.229 248.082 144.187ZM232.011 154.719C229.942 151.237 227.825 148.622 225.662 146.874C223.484 145.109 221.279 144.253 219.047 144.307C216.8 144.342 214.541 145.305 212.27 147.195C209.684 149.346 207.919 151.879 206.973 154.794C206.028 157.709 205.881 160.891 206.533 164.34C207.185 167.788 208.63 171.391 210.867 175.146C212.895 178.721 214.994 181.351 217.163 183.035C219.35 184.704 221.563 185.48 223.8 185.362C226.056 185.23 228.302 184.234 230.538 182.374C233.089 180.252 234.834 177.765 235.773 174.914C236.73 172.049 236.889 168.916 236.248 165.517C235.626 162.103 234.213 158.504 232.011 154.719Z" fill="#F8DA27"/>
<path d="M102.758 218.076L100.84 215.77L98.8849 217.396L100.169 219.591L102.758 218.076ZM117.33 205.954L119.919 204.44L118.132 201.384L115.411 203.648L117.33 205.954ZM140.221 245.092L137.631 246.606L137.637 246.616L140.221 245.092ZM144.386 259.587L141.386 259.61L141.386 259.612L144.386 259.587ZM140.842 274.197L143.514 275.563L143.519 275.552L140.842 274.197ZM116.574 294.386L117.24 297.312L117.252 297.309L116.574 294.386ZM103.869 293.293L102.619 296.02L102.628 296.025L102.638 296.029L103.869 293.293ZM93.8856 283.638L91.2961 285.153L91.3016 285.162L93.8856 283.638ZM70.9943 244.501L69.0757 242.194L67.121 243.821L68.4048 246.015L70.9943 244.501ZM85.5659 232.379L88.1554 230.864L86.3684 227.809L83.6473 230.072L85.5659 232.379ZM107.62 270.084L105.031 271.598L105.037 271.609L105.043 271.619L107.62 270.084ZM116.791 275.137L117.16 278.115L117.176 278.113L117.192 278.11L116.791 275.137ZM125.676 267.746L128.44 268.911L128.446 268.898L125.676 267.746ZM124.813 255.781L122.223 257.296L122.229 257.307L122.235 257.317L124.813 255.781ZM104.677 220.383L119.248 208.261L115.411 203.648L100.84 215.77L104.677 220.383ZM114.74 207.469L137.632 246.606L142.811 243.577L119.919 204.44L114.74 207.469ZM137.637 246.616C140.126 250.836 141.351 255.154 141.386 259.61L147.386 259.563C147.342 253.974 145.79 248.629 142.805 243.568L137.637 246.616ZM141.386 259.612C141.424 264.092 140.369 268.491 138.166 272.842L143.519 275.552C146.125 270.404 147.433 265.063 147.386 259.561L141.386 259.612ZM138.171 272.832C135.958 277.161 132.724 281.128 128.402 284.724L132.24 289.336C137.108 285.287 140.888 280.699 143.514 275.563L138.171 272.832ZM128.402 284.724C124.03 288.361 119.861 290.544 115.896 291.464L117.252 297.309C122.356 296.124 127.352 293.402 132.24 289.336L128.402 284.724ZM115.908 291.461C111.938 292.364 108.374 292.03 105.099 290.557L102.638 296.029C107.205 298.084 112.112 298.478 117.24 297.312L115.908 291.461ZM105.119 290.566C101.883 289.083 98.9739 286.36 96.4697 282.114L91.3016 285.162C94.2719 290.198 98.018 293.912 102.619 296.02L105.119 290.566ZM96.4752 282.124L73.5839 242.986L68.4048 246.015L91.2961 285.153L96.4752 282.124ZM72.9129 246.807L87.4845 234.685L83.6473 230.072L69.0757 242.194L72.9129 246.807ZM82.9763 233.893L105.031 271.598L110.21 268.569L88.1554 230.864L82.9763 233.893ZM105.043 271.619C106.384 273.869 108.111 275.668 110.282 276.83L113.115 271.541C112.085 270.99 111.095 270.054 110.198 268.548L105.043 271.619ZM110.282 276.83C112.426 277.979 114.747 278.414 117.16 278.115L116.422 272.16C115.244 272.306 114.17 272.106 113.115 271.541L110.282 276.83ZM117.192 278.11C119.635 277.781 121.866 276.68 123.871 275.012L120.034 270.4C118.719 271.493 117.509 272.013 116.39 272.164L117.192 278.11ZM123.871 275.012C125.898 273.326 127.439 271.288 128.44 268.911L122.911 266.582C122.302 268.027 121.362 269.295 120.034 270.4L123.871 275.012ZM128.446 268.898C129.428 266.535 129.844 264.066 129.683 261.525L123.695 261.905C123.798 263.52 123.539 265.071 122.905 266.595L128.446 268.898ZM129.683 261.525C129.519 258.948 128.74 256.512 127.39 254.246L122.235 257.317C123.123 258.807 123.595 260.326 123.695 261.905L129.683 261.525ZM127.402 254.267L105.348 216.562L100.169 219.591L122.223 257.296L127.402 254.267ZM170.695 161.559L173.285 160.044L171.498 156.99L168.777 159.253L170.695 161.559ZM206.436 222.646L208.354 224.952L210.309 223.326L209.025 221.131L206.436 222.646ZM194.275 232.762L193.115 235.529L194.794 236.233L196.194 235.068L194.275 232.762ZM156.14 216.772L157.3 214.005L155.621 213.301L154.221 214.465L156.14 216.772ZM155.825 217.033L153.907 214.727L151.954 216.351L153.234 218.545L155.825 217.033ZM174.567 249.157L176.486 251.464L178.438 249.839L177.158 247.646L174.567 249.157ZM159.996 261.279L157.406 262.794L159.193 265.849L161.914 263.586L159.996 261.279ZM124.255 200.193L122.337 197.887L120.382 199.513L121.666 201.708L124.255 200.193ZM136.625 189.902L137.797 187.141L136.113 186.426L134.707 187.596L136.625 189.902ZM174.464 205.962L173.292 208.724L174.976 209.439L176.383 208.268L174.464 205.962ZM174.883 205.613L176.802 207.92L178.761 206.29L177.47 204.094L174.883 205.613ZM156.124 173.681L154.205 171.375L152.247 173.004L153.537 175.201L156.124 173.681ZM168.106 163.074L203.847 224.161L209.025 221.131L173.285 160.044L168.106 163.074ZM204.517 220.339L192.357 230.456L196.194 235.068L208.354 224.952L204.517 220.339ZM195.436 229.995L157.3 214.005L154.98 219.538L193.115 235.529L195.436 229.995ZM154.221 214.465L153.907 214.727L157.744 219.34L158.058 219.078L154.221 214.465ZM153.234 218.545L171.976 250.669L177.158 247.646L158.417 215.521L153.234 218.545ZM172.649 246.851L158.077 258.973L161.914 263.586L176.486 251.464L172.649 246.851ZM162.585 259.764L126.845 198.678L121.666 201.708L157.406 262.794L162.585 259.764ZM126.174 202.499L138.544 192.209L134.707 187.596L122.337 197.887L126.174 202.499ZM135.453 192.664L173.292 208.724L175.636 203.201L137.797 187.141L135.453 192.664ZM176.383 208.268L176.802 207.92L172.965 203.307L172.545 203.656L176.383 208.268ZM177.47 204.094L158.711 172.162L153.537 175.201L172.297 207.133L177.47 204.094ZM158.043 175.988L172.614 163.866L168.777 159.253L154.205 171.375L158.043 175.988ZM248.082 144.187L250.674 142.676L250.671 142.671L248.082 144.187ZM254.473 163.704L251.479 163.885L251.479 163.885L254.473 163.704ZM251.346 181.427L254.079 182.664L254.079 182.664L251.346 181.427ZM224.737 203.12L224.256 200.158L224.737 203.12ZM208.659 200.264L210.082 197.623L210.082 197.623L208.659 200.264ZM194.795 185.678L197.386 184.165L197.382 184.159L197.378 184.152L194.795 185.678ZM188.308 166.153L185.315 166.347L185.315 166.347L188.308 166.153ZM191.401 148.281L188.663 147.054L188.663 147.054L191.401 148.281ZM218.014 126.541L218.479 129.504L218.485 129.503L218.014 126.541ZM234.131 129.496L232.691 132.128L232.701 132.133L234.131 129.496ZM232.011 154.719L234.603 153.21L234.597 153.198L234.59 153.187L232.011 154.719ZM225.662 146.874L223.773 149.205L223.777 149.208L225.662 146.874ZM219.047 144.307L219.095 147.306L219.107 147.306L219.119 147.306L219.047 144.307ZM206.973 154.794L204.12 153.868L204.12 153.868L206.973 154.794ZM210.867 175.146L213.477 173.666L213.461 173.638L213.444 173.611L210.867 175.146ZM217.163 183.035L215.324 185.405L215.334 185.412L215.343 185.419L217.163 183.035ZM223.8 185.362L223.958 188.358L223.967 188.358L223.976 188.357L223.8 185.362ZM235.773 174.914L232.928 173.964L232.924 173.975L235.773 174.914ZM236.248 165.517L233.297 166.055L233.299 166.064L233.3 166.072L236.248 165.517ZM245.49 145.698C249.179 152.025 251.128 158.079 251.479 163.885L257.468 163.523C257.05 156.605 254.738 149.648 250.674 142.676L245.49 145.698ZM251.479 163.885C251.836 169.791 250.868 175.208 248.613 180.189L254.079 182.664C256.763 176.737 257.88 170.339 257.468 163.523L251.479 163.885ZM248.613 180.189C246.336 185.22 243.025 189.546 238.648 193.188L242.485 197.801C247.542 193.594 251.418 188.542 254.079 182.664L248.613 180.189ZM238.648 193.188C233.957 197.09 229.163 199.361 224.256 200.158L225.218 206.081C231.352 205.084 237.112 202.27 242.485 197.801L238.648 193.188ZM224.256 200.158C219.425 200.944 214.732 200.129 210.082 197.623L207.236 202.905C212.981 206.001 219.007 207.09 225.218 206.081L224.256 200.158ZM210.082 197.623C205.514 195.162 201.249 190.777 197.386 184.165L192.205 187.192C196.432 194.426 201.409 199.765 207.236 202.905L210.082 197.623ZM197.378 184.152C193.659 177.857 191.68 171.801 191.302 165.959L185.315 166.347C185.764 173.298 188.109 180.258 192.213 187.204L197.378 184.152ZM191.302 165.959C190.918 160.021 191.875 154.555 194.138 149.509L188.663 147.054C185.976 153.044 184.871 159.493 185.315 166.347L191.302 165.959ZM194.138 149.509C196.422 144.418 199.752 140.048 204.161 136.38L200.323 131.768C195.228 136.007 191.33 141.109 188.663 147.054L194.138 149.509ZM204.161 136.38C208.81 132.512 213.579 130.273 218.479 129.504L217.55 123.577C211.414 124.539 205.668 127.322 200.323 131.768L204.161 136.38ZM218.485 129.503C223.324 128.734 228.028 129.576 232.691 132.128L235.571 126.864C229.816 123.715 223.775 122.587 217.543 123.578L218.485 129.503ZM232.701 132.133C237.304 134.631 241.601 139.055 245.493 145.703L250.671 142.671C246.416 135.403 241.412 130.033 235.562 126.859L232.701 132.133ZM234.59 153.187C232.414 149.526 230.083 146.589 227.547 144.541L223.777 149.208C225.568 150.655 227.469 152.948 229.431 156.251L234.59 153.187ZM227.551 144.544C224.965 142.448 222.087 141.233 218.975 141.307L219.119 147.306C220.471 147.273 222.003 147.77 223.773 149.205L227.551 144.544ZM218.999 141.307C215.879 141.357 212.982 142.7 210.352 144.888L214.189 149.501C216.101 147.91 217.722 147.328 219.095 147.306L218.999 141.307ZM210.352 144.888C207.374 147.366 205.257 150.362 204.12 153.868L209.827 155.719C210.581 153.396 211.995 151.326 214.189 149.501L210.352 144.888ZM204.12 153.868C202.998 157.328 202.854 161.026 203.585 164.897L209.481 163.782C208.909 160.755 209.058 158.09 209.827 155.719L204.12 153.868ZM203.585 164.897C204.316 168.764 205.915 172.695 208.29 176.682L213.444 173.611C211.344 170.086 210.054 166.813 209.481 163.782L203.585 164.897ZM208.258 176.627C210.393 180.391 212.726 183.388 215.324 185.405L219.003 180.665C217.262 179.313 215.397 177.052 213.477 173.666L208.258 176.627ZM215.343 185.419C217.962 187.418 220.857 188.521 223.958 188.358L223.643 182.366C222.268 182.439 220.738 181.989 218.984 180.65L215.343 185.419ZM223.976 188.357C227.034 188.178 229.87 186.832 232.457 184.68L228.619 180.067C226.733 181.636 225.078 182.282 223.625 182.367L223.976 188.357ZM232.457 184.68C235.393 182.238 237.489 179.293 238.623 175.853L232.924 173.975C232.179 176.237 230.785 178.266 228.619 180.067L232.457 184.68ZM238.619 175.864C239.76 172.448 239.918 168.79 239.197 164.962L233.3 166.072C233.86 169.043 233.701 171.65 232.928 173.964L238.619 175.864ZM239.2 164.979C238.501 161.147 236.937 157.22 234.603 153.21L229.418 156.228C231.489 159.788 232.751 163.06 233.297 166.055L239.2 164.979Z" fill="black" mask="url(#path-19-outside-4_8_45)"/>
</svg>
